Traveler, The (2010) X264 MKV AC3+DTS 1080p NLSub


PLOT

On a dark Christmas Eve in a small town, the lone Sheriffs on the 
night shift encounter a mysterious man who goes by the name of Mr...


MM:    http://www.moviemeter.nl/film/61323

IMDB:    http://www.imdb.com/title/tt1533084/

INFO

Source.......: 1080P BluRay 
FRAME RATE...: 24.000Fps 
VIDEO CODEC..: X264
AUDIO 1......: DTS
AUDIO 2......: AC3
RESOLUTION...: 1920x816
RUNTIME......: 96 MINS 
GENERE.......: Horror | Thriller
LANGUAGE.....: English
SUBTITLES....: Dutch

Thanks To Bradje

Enjoy This Nice release

PLAYER INFO

      Format : Matroska
      File size : 6.98 GiB
      Duration : 1h 35mn
      Overall bit rate : 10.4 Mbps
      Movie name : The Traveler (2010) 1080P.X264.NL.SUBBED.Bradje
      Encoded date : UTC 2010-09-21 20:29:57
      Writing application : mkvmerge v3.3.0 ('Language') built on Mar 24 2010 14:59:24
      Writing library : libebml v0.8.0 + libmatroska v0.9.0
   Video #1
      ID : 1
      Format : AVC
      Format/Info : Advanced Video Codec
      Format profile : High@L4.1
      Format settings, CABAC : Yes
      Format settings, ReFrames : 5 frames
      Muxing mode : Container profile=Unknown@4.1
      Codec ID : V_MPEG4/ISO/AVC
      Duration : 1h 35mn
      Bit rate : 8 063 Kbps
      Nominal bit rate : 8 274 Kbps
      Width : 1 920 pixels
      Height : 816 pixels
      Display aspect ratio : 2.35:1
      Frame rate : 24.000 fps
      Resolution : 24 bits
      Colorimetry : 4:2:0
      Scan type : Progressive
      Bits/(Pixel*Frame) : 0.214
      Stream size : 5.40 GiB (77%)
      Title : x264
      Writing library : x264 core 104 r1713 c276662
      Encoding settings : cabac=1 / ref=5 / deblock=1:-1:-1 / analyse=0x3:0x113 / 
me=umh / subme=7 / psy=1 / psy_rd=1.00:0.00 / mixed_ref=1 / me_range=16 / chroma_me=1 / 
trellis=1 / 8x8dct=1 / cqm=0 / deadzone=21,11 / fast_pskip=1 / chroma_qp_offset=-2 / 
threads=6 / sliced_threads=0 / nr=0 / decimate=1 / interlaced=0 / constrained_intra=0 / 
bframes=3 / b_pyramid=2 / b_adapt=2 / b_bias=0 / direct=3 / weightb=1 / open_gop=0 / 
weightp=2 / keyint=250 / keyint_min=24 / scenecut=40 / intra_refresh=0 / rc_lookahead=40 / 
rc=2pass / mbtree=1 / bitrate=8274 / ratetol=1.0 / qcomp=0.60 / qpmin=10 / qpmax=51 / 
qpstep=4 / cplxblur=20.0 / qblur=0.5 / vbv_maxrate=50000 / vbv_bufsize=50000 / 
ip_ratio=1.40 / aq=1:1.00 / nal_hrd=none
      Language : English
   Audio #2
      ID : 2
      Format : AC-3
      Format/Info : Audio Coding 3
      Codec ID : A_AC3
      Duration : 1h 35mn
      Bit rate mode : Constant
      Bit rate : 640 Kbps
      Channel(s) : 6 channels
      Channel positions : Front: L C R, Surround: L R, LFE
      Sampling rate : 48.0 KHz
      Stream size : 439 MiB (6%)
      Title : AC3
      Language : English
   Audio #3
      ID : 3
      Format : DTS
      Format/Info : Digital Theater Systems
      Codec ID : A_DTS
      Duration : 1h 35mn
      Bit rate mode : Constant
      Bit rate : 1 510 Kbps
      Channel(s) : 6 channels
      Channel positions : Front: L C R, Surround: L R, LFE
      Sampling rate : 48.0 KHz
      Resolution : 24 bits
      Stream size : 1.01 GiB (14%)
      Title : DTS
      Language : English
   Text #4
      ID : 4
      Format : UTF-8
      Codec ID : S_TEXT/UTF8
      Codec ID/Info : UTF-8 Plain Text
      Title : Subtitles
      Language : Dutch